<svg width="29" height="29" fill="none" xmlns="http://www.w3.org/2000/svg"><path d="M17.813 6.25a6.25 6.25 0 014.937 4.938L17.812 6.25zm0-5a11.25 11.25 0 019.937 9.925L17.812 1.25zm8.687 19.9v3.75a2.5 2.5 0 01-2.725 2.5 24.737 24.737 0 01-10.787-3.837 24.376 24.376 0 01-7.5-7.5A24.737 24.737 0 011.65 5.225 2.5 2.5 0 014.138 2.5h3.75a2.5 2.5 0 012.5 2.15c.158 1.2.451 2.378.874 3.512A2.5 2.5 0 0110.7 10.8l-1.587 1.587a20 20 0 007.5 7.5L18.2 18.3a2.5 2.5 0 012.637-.563c1.135.424 2.313.717 3.513.876a2.5 2.5 0 012.15 2.537z" stroke="#fff" stroke-width="2" stroke-linecap="round" stroke-linejoin="round"/></svg>